<svg xmlns="http://www.w3.org/2000/svg" viewBox="0 0 24 24">
  <g>
    <path fill="none" d="M0 0h24v24H0z"/>
    <path d="M10.133 2.13c-.573 0-1.113.38-1.363.785-.25.406-.329.829-.338 1.258-.016.712.236 1.46.685 2.144v3.356c-2.108 1.061-3.564 3.24-3.564 5.752 0 3.548 2.899 6.445 6.447 6.445s6.447-2.897 6.447-6.445c0-2.513-1.458-4.691-3.568-5.752V6.32c.45-.685.703-1.435.687-2.148-.009-.43-.087-.852-.337-1.258s-.791-.785-1.364-.785zm.336 2.031h3.06c.005.031.007.017.008.057.007.33-.146.862-.44 1.2-.16.185-.247.421-.247.665v5.01a4.397 4.397 0 013.566 4.332A4.4 4.4 0 0112 19.84a4.4 4.4 0 01-4.416-4.416 4.398 4.398 0 013.564-4.332v-5.01c0-.244-.088-.48-.248-.664a1.995 1.995 0 01-.44-1.201c.002-.04.004-.026.009-.057z"/>
    <path d="M10.125 15.708c-.702 0-1.281.58-1.281 1.281 0 .702.58 1.282 1.281 1.282.702 0 1.281-.58 1.281-1.282 0-.701-.58-1.281-1.281-1.281z"/>
  </g>
</svg>
