<svg xmlns="http://www.w3.org/2000/svg" viewBox="0 0 24 24">
  <g>
    <path fill="none" d="M0 0h24v24H0z"/>
    <path d="M10.133 2.13c-.573 0-1.113.38-1.363.786s-.329.829-.338 1.258c-.016.712.236 1.46.685 2.144v3.356c-2.108 1.061-3.564 3.24-3.564 5.752 0 3.548 2.899 6.443 6.447 6.443s6.447-2.895 6.447-6.443c0-2.513-1.458-4.691-3.568-5.752V6.322c.45-.685.703-1.435.687-2.148-.009-.43-.087-.852-.337-1.258s-.791-.785-1.364-.785h-3.732zm-.008 13.579c.702 0 1.281.58 1.281 1.281 0 .702-.58 1.281-1.281 1.281-.702 0-1.281-.58-1.281-1.28 0-.702.58-1.282 1.281-1.282z"/>
  </g>
</svg>
