<svg xmlns="http://www.w3.org/2000/svg" viewBox="0 0 24 24">
  <g>
    <path d="M12.096.707l-.012.002a.958.958 0 00-.826.598l-.649 1.09-.716-1.21a.958.958 0 00-1.647 0L7.502 2.44l-.81-1.277a.958.958 0 00-.81-.443c-1.675 0-3.17 1.37-3.05 3.117l.18 2.986c-.036.13-.852 4.438-.852 4.438a1.13 1.13 0 00-.014.107v.008a.948.948 0 000 .16v.008c.003.035.008.07.014.103l.877 4.438-.205 2.986c-.12 1.748 1.375 3.117 3.05 3.117a.958.958 0 00.81-.443c.82-1.418.75-1.373 1.554-.023a.958.958 0 001.647 0c.712-1.282.634-1.348 1.37-.108a.958.958 0 00.958.584.958.958 0 00.824-.593c.69-1.34.672-1.056 1.367.117a.958.958 0 001.647 0c.772-1.465.73-1.28 1.554.023a.958.958 0 00.81.445c1.677 0 3.17-1.37 3.05-3.119l-.178-2.984c.035-.13.85-4.44.85-4.44a1.13 1.13 0 00.013-.107v-.008a.92.92 0 000-.156v-.004-.008a.962.962 0 00-.013-.103l-.877-4.438.205-2.986c.12-1.748-1.373-3.117-3.05-3.117a.958.958 0 00-.81.443l-.81 1.277-.744-1.252a.958.958 0 00-1.647 0l-.717 1.21-.644-1.086a.958.958 0 00-.871-.604.959.959 0 00-.084 0zm-6.914 5.16h8.228c1.352-.019 1.352 2.02 0 2H5.182l.12-1.025-.12-.975zm6.029 9.149h8.228l-.123.974.123 1.026h-8.228c-1.352.019-1.352-2.02 0-2z"/>
  </g>
</svg>
