<svg xmlns="http://www.w3.org/2000/svg" viewBox="0 0 24 24">
  <g>
    <path d="M11.943.707l-.011.002a.958.958 0 00-.826.598l-.649 1.09-.717-1.21a.958.958 0 00-1.646 0L7.35 2.44l-.81-1.278A.958.958 0 005.73.72c-1.675 0-3.17 1.37-3.05 3.117l.178 2.986a663.987 663.987 0 00-.856 4.479.926.926 0 00-.008.066v.008a.948.948 0 000 .16v.008c.003.035.007.07.014.104l.877 4.437-.205 2.987c-.12 1.747 1.375 3.117 3.05 3.117a.958.958 0 00.809-.444l.809-1.277.746 1.254a.958.958 0 001.646 0l.717-1.209.654 1.102a.958.958 0 00.832.584.954.954 0 00.03.002c.032 0 .063 0 .095-.002a.958.958 0 00.825-.594l.65-1.092.717 1.209a.958.958 0 001.646 0l.746-1.254.809 1.277a.958.958 0 00.81.446c1.676 0 3.17-1.372 3.05-3.12l-.18-2.985c.036-.13.851-4.438.851-4.438a1.13 1.13 0 00.014-.108v-.007a.92.92 0 000-.157v-.011a.962.962 0 00-.014-.104l-.877-4.437.205-2.987C21.44 2.088 19.947.72 18.271.72a.958.958 0 00-.81.443l-.81 1.278-.745-1.252a.958.958 0 00-1.646 0l-.717 1.209-.645-1.086a.958.958 0 00-.87-.604.958.958 0 00-.085 0zm6.75 2.092c.415.17.744.485.715.906l-.213 3.114a.956.956 0 00.016.25l.867 4.384-.707 3.573-8.273.01c-1.353-.017-1.349 2.021.004 2l8.158-.01.148 2.177c.03.422-.3.734-.715.905l-1.26-1.985a.958.958 0 00-1.632.024l-.719 1.209-.717-1.21a.958.958 0 00-1.646 0L12 19.357l-.719-1.21a.958.958 0 00-1.646 0l-.717 1.21-.719-1.21a.958.958 0 00-1.633-.023l-1.26 1.983c-.413-.17-.743-.481-.714-.903l.213-3.113a.96.96 0 00-.016-.252l-.865-4.385.705-3.572 8.273-.01c1.353.018 1.35-2.02-.002-2l-8.16.01-.148-2.176c-.03-.42.3-.733.715-.904l1.26 1.982a.958.958 0 001.632-.023l.719-1.209.717 1.209a.958.958 0 001.646 0L12 3.551l.719 1.209a.958.958 0 001.646 0l.717-1.209.719 1.209a.958.958 0 001.633.023zM3.906 11.383l.006.07-.006.06a.97.97 0 000-.13zm16.188.037l-.002.037-.002-.004z"/>
  </g>
</svg>
